# xmcd
#
# Track frame offsets:
#        150
#        8730
#        31647
#        47487
#        48610
#        68927
#        93310
#        105832
#        133012
#        154205
#        172915
#        202060
#        229327
#        250307
#        277180
#        291107
#        309957
#        325022
#
# Disc length: 4515 seconds
#
# Revision: 0
# Processed by: cddbd v1.5.1PL0 Copyright (c) Steve Scherf et al.
# Submitted via: ExactAudioCopy v0.95a5
#
DISCID=f311a112
DTITLE=Sodom - Sodomania
DYEAR=1991
DGENRE=Heavy Metal
TTITLE0=Introduction
TTITLE1=Deathlike Silence
TTITLE2=Proselytism Real
TTITLE3=Introduction
TTITLE4=Outbreak Of Evil
TTITLE5=Nuclear Winter
TTITLE6=Iron Fist
TTITLE7=My Atonement
TTITLE8=Persecution Mania
TTITLE9=Enchanted Land
TTITLE10=Christ Passion
TTITLE11=Agent Orange
TTITLE12=Incest
TTITLE13=Magic Dragon
TTITLE14=Ausgebombt
TTITLE15=The Saw Is The Law
TTITLE16=Turn Your Head Around
TTITLE17=Tarred And Fathered
EXTD=
EXTT0=
EXTT1=
EXTT2=
EXTT3=
EXTT4=
EXTT5=
EXTT6=
EXTT7=
EXTT8=
EXTT9=
EXTT10=
EXTT11=
EXTT12=
EXTT13=
EXTT14=
EXTT15=
EXTT16=
EXTT17=
PLAYORDER=
